<svg xmlns="http://www.w3.org/2000/svg" xml:space="preserve" viewBox="0 0 512 512"><path d="M477.4 182.2 329.8 34.6C289-6.2 222.9-6.2 182.1 34.6L34.6 182.2c-40.8 40.8-40.8 106.9 0 147.7l147.6 147.6c40.8 40.8 106.9 40.8 147.7 0l147.6-147.6c40.7-40.8 40.7-107-.1-147.7M309 113.8c10 0 18.1 2.6 24.4 7.7s11 12.9 13.9 23.4l-22.7 4.5c-2.9-10.9-8.1-16.4-15.4-16.4q-11.25 0-16.5 9c-5.25 9-5.3 15.6-5.3 29 0 12.3 1.9 21.9 5.6 28.6s9.4 10 16.9 10c2.9 0 6-.6 9.1-1.7s5.9-2.6 8.2-4.5v-19.5h-22.7v-18.1h45.2v46.3c-13.4 11.3-27.1 17-40.9 17-14.4 0-25.7-5.1-33.9-15.2-8.1-10.2-12.2-24.5-12.2-43-.1-38 15.4-57.1 46.3-57.1m-146.8 1.7H191l11.2 41.4c.8 2.6 1.9 9 3.2 19.2 1.1-8.6 2.2-14.9 3.3-19.1l11.3-41.5h27.8v112h-18.4v-72.1c0-5.8.4-14.1 1.3-25-3.3 16-5.3 25.5-6.2 28.3l-10.3 38.8h-18.1l-10.5-38.8c-1.6-6-3.7-15.4-6.3-28.3l.6 8.3c.4 5.8.6 11.4.6 16.7v72.1h-18.3zm170.1 280-25.2-40.9-25.2 40.9h-51.6l-25.2-40.9-25.2 40.9H154l38.1-59-34.7-53h25.9l21.8 35.7 21.7-35.7h25.7l-35.5 53 38.9 59 38.1-59-34.7-53h25.9l21.8 35.7 21.7-35.7h25.7l-35.5 53 38.9 59z" style="fill:#0b76ce"/><path d="M309 113.8c10 0 18.1 2.6 24.4 7.7s11 12.9 13.9 23.4l-22.7 4.5c-2.9-10.9-8.1-16.4-15.4-16.4q-11.25 0-16.5 9c-5.25 9-5.3 15.6-5.3 29 0 12.3 1.9 21.9 5.6 28.6s9.4 10 16.9 10c2.9 0 6-.6 9.1-1.7s5.9-2.6 8.2-4.5v-19.5h-22.7v-18.1h45.2v46.3c-13.4 11.3-27.1 17-40.9 17-14.4 0-25.7-5.1-33.9-15.2-8.1-10.2-12.2-24.5-12.2-43-.1-38 15.4-57.1 46.3-57.1m-146.8 1.7H191l11.2 41.4c.8 2.6 1.9 9 3.2 19.2 1.1-8.6 2.2-14.9 3.3-19.1l11.3-41.5h27.8v112h-18.4v-72.1c0-5.8.4-14.1 1.3-25-3.3 16-5.3 25.5-6.2 28.3l-10.3 38.8h-18.1l-10.5-38.8c-1.6-6-3.7-15.4-6.3-28.3l.6 8.3c.4 5.8.6 11.4.6 16.7v72.1h-18.3zm170.1 280-25.2-40.9-25.2 40.9h-51.6l-25.2-40.9-25.2 40.9H154l38.1-59-34.7-53h25.9l21.8 35.7 21.7-35.7h25.7l-35.5 53 38.9 59 38.1-59-34.7-53h25.9l21.8 35.7 21.7-35.7h25.7l-35.5 53 38.9 59z" style="fill:#fff"/></svg>